<svg xmlns="http://www.w3.org/2000/svg" width="316.459" height="416.743" viewBox="0 0 316.459 416.743">
  <g id="Groupe_239" data-name="Groupe 239" transform="translate(-31.7 -1692.258)">
    <g id="Symbols" transform="translate(69.024 1692.258)">
      <g id="Head_Front_Short-1" data-name="Head/Front/Short-1" transform="translate(0 0)">
        <g id="Head" transform="translate(0.034 1.122)">
          <path id="Tracé_24" data-name="Tracé 24" d="M2.549,10.639a8.356,8.356,0,0,1-2.223-6c.463-6.6,9.652-5.149,11.44-1.817S13.341,14.6,11.031,15.2c-.921.237-2.884-.344-4.881-1.548L7.4,22.517H0Z" transform="translate(0 0)" fill="#b28b67" fill-rule="evenodd"/>
        </g>
        <path id="Hair" d="M62.424,31.786a8.138,8.138,0,0,0-2.58,3,1.851,1.851,0,0,0-1.97,3.047c-.428.6-.908,1.236-1.458,1.887A6.2,6.2,0,0,1,54.8,31.433c1.686-6.939,11.239-2.632,13.077-3.8C68.275,30.148,66.98,32.179,62.424,31.786Z" transform="translate(-53.889 -27.364)" fill="#191847" fill-rule="evenodd"/>
      </g>
    </g>
    <g id="Symbols-2" data-name="Symbols" transform="translate(31.7 1744.079)">
      <g id="Bottom_Standing_Skinny-Jeans-Walk" data-name="Bottom/Standing/Skinny-Jeans-Walk" transform="translate(0 0)">
        <path id="Leg" d="M128,0l14.831,39.244,10.4,28.925h5.928L144.865,0Z" transform="translate(-95.172)" fill="#1f28cf" fill-rule="evenodd"/>
        <path id="Leg-2" data-name="Leg" d="M62.787,0c-.161,13.465-.045,31.594-.42,32.434Q61.991,33.273,39,51.561l3.055,5.2q27.3-17.6,28.691-19.948C72.142,34.463,79.153,12.882,82.8,0Z" transform="translate(-33.625)" fill="#2b44ff" fill-rule="evenodd"/>
        <g id="Accessories_Shoe_Flat-Pointy" data-name="Accessories/Shoe/Flat-Pointy" transform="matrix(0.643, 0.766, -0.766, 0.643, 4.962, 50.893)">
          <path id="Shoe" d="M0,6.478.308,0H6.786a38.212,38.212,0,0,0,12.03,5.244V6.478H7.095l-4.01-.617v.617Z" transform="translate(0 0)" fill="#191847" fill-rule="evenodd"/>
        </g>
        <g id="Accessories_Shoe_Flat-Pointy-2" data-name="Accessories/Shoe/Flat-Pointy" transform="translate(57.504 67.244)">
          <path id="Shoe-2" data-name="Shoe" d="M0,25.478.308,19H6.786a38.212,38.212,0,0,0,12.03,5.244v1.234H7.095l-4.01-.617v.617Z" transform="translate(0 -19)" fill="#191847" fill-rule="evenodd"/>
        </g>
      </g>
    </g>
    <g id="Symbols-3" data-name="Symbols" transform="translate(34.476 1710.766)">
      <g id="Body_Lab-Coat" data-name="Body/Lab-Coat" transform="translate(0 0)">
        <path id="Skin" d="M61.874,80.952l9.311,7.894a26.485,26.485,0,0,1,6.485,3.148c.4.414.851,1.228-.89.971s-3.582-.449-3.866.131.726,1.368.181,2.139q-.544.771-4.329-4.361l-9.438-4.71ZM19.71,77.536l5.463.793q-8.8,19.086-9.432,20.187c-.953,1.652.168,4.53.606,6.054-2.214.639-1.507-2.782-4.307-1.928-2.555.779-4.664,2.544-7.2.445-.311-.258-.573-1.1.416-1.594,2.464-1.225,6.082-3.467,6.644-4.293Q13.056,95.509,19.71,77.536Z" transform="translate(-4.564 -53.459)" fill="#b28b67" fill-rule="evenodd"/>
        <path id="Coat-Back" d="M0,1.41,3.275,0C8.849,11.028,16.639,21.488,28.856,29.83l-2.393,5.11C15.928,29.915,6.043,26.16,1.42,17.642-.132,14.783.206,4.973,0,1.41Z" transform="translate(38.103 0.4) rotate(5)" fill="#c5cfd6" fill-rule="evenodd"/>
        <path id="Shirt" d="M90,35.108q14.546,1.542,22.9,0c.69-.127.8-1.282.479-2.066-4.982-12.208-8.4-22.86-8.4-31.339q-1.371.691-4.8.207C94.037,10.648,91.213,20.674,90,35.108Z" transform="translate(-63.647 -1.017)" fill="#323337" fill-rule="evenodd"/>
        <path id="Coat-Front" d="M56.325-.359h2.56c.6,3.506,2.476,50.976,8.28,66.505h-31.4c.681-14.226,6.051-31.314,11.491-45.614q-7.216,6.6-12.578,22.377L28.793,41.4Q35.353,13.131,55.768-.155l.088-.2h.227l.251-.16Z" transform="translate(-21.319 0.519)" fill="#dde3e9" fill-rule="evenodd"/>
      </g>
    </g>
    <g id="humaaans_standing-22" data-name="humaaans/standing-22" transform="translate(262.122 1994.361)">
      <g id="humaaan-12" transform="translate(0 0)">
        <g id="Head_Front_Pony" data-name="Head/Front/Pony" transform="matrix(-0.966, 0.259, -0.259, -0.966, 57.856, 22.163)">
          <g id="Head-2" data-name="Head" transform="translate(12.976 0)">
            <path id="Tracé_25" data-name="Tracé 25" d="M2.352,10.51a7.232,7.232,0,0,0-1.972,5.3c.449,5.836,8.716,4.6,10.31,1.661S12.051,7.061,9.968,6.524c-.831-.214-2.6.29-4.388,1.345L6.666.036,0,0Z" transform="translate(0 0)" fill="#d4a181" fill-rule="evenodd"/>
          </g>
          <path id="hair-2" data-name="hair" d="M17.638,2.747C16.8,1.185,15.653.006,14.511,0c-2.17-.012-3.7,2.827-3.68,5.887q0,.161.008.32C8.536,4.65,6.75,1.594,3.714,1.578c-4.131-.022-5.727,8.147.045,8.178,3.925.021,5.853-.53,7.513-1.352a5.374,5.374,0,0,0,1.453,2.212,2.273,2.273,0,0,0,.667.466,3.144,3.144,0,0,0,.553.235,14.152,14.152,0,0,0,4.085.695c.3.012.6.017.892.014a2.789,2.789,0,0,0,2.792,2.732,2.716,2.716,0,0,0,2.763-2.711,2.786,2.786,0,0,0-2.642-2.736,14.337,14.337,0,0,0-3.11-.535,5.563,5.563,0,0,0,.171-1.461,8.147,8.147,0,0,0-.163-1.522,1.289,1.289,0,0,1-.953.494A1.672,1.672,0,0,1,16.1,4.643,1.715,1.715,0,0,1,17.638,2.747Z" transform="translate(0 8.186)" fill="#191847" fill-rule="evenodd"/>
        </g>
        <g id="Bottom_Standing_Jogging" data-name="Bottom/Standing/Jogging" transform="translate(0 49.584)">
          <path id="Leg-3" data-name="Leg" d="M175.079,0,154.41,33.814,138.914,62.4h-3.338L161.54,0Z" transform="translate(-125.288 0)" fill="#ba8b72" fill-rule="evenodd"/>
          <g id="Accessories_Shoe_Flat-Sneaker" data-name="Accessories/Shoe/Flat-Sneaker" transform="translate(0 59.43)">
            <path id="shoe-3" data-name="shoe" d="M16.709,21.813a5.741,5.741,0,0,1,.467,1.825,13.377,13.377,0,0,1-.251,2.149H1.237q-.612-1.978.706-2.136t2.189-.285l7.292-3.181a.281.281,0,0,1,.367.138l0,.007.469,1.113A5.087,5.087,0,0,0,14.245,22a4.564,4.564,0,0,0,1.711-.49h0a.561.561,0,0,1,.738.268Q16.7,21.8,16.709,21.813Z" transform="translate(-1.043 -20.161)" fill="#e4e4e4" fill-rule="evenodd"/>
          </g>
          <path id="Pant" d="M129.127,57.824l-6.437-1.905q4.23-12.375,10.369-27.236T146.246,0h18.179a277.563,277.563,0,0,1-16.612,31.772A215.09,215.09,0,0,1,129.127,57.824Z" transform="translate(-111.198 0)" fill="#db2721" fill-rule="evenodd"/>
          <path id="Leg-4" data-name="Leg" d="M25.476,0c1.951,11.883,5.713,27.064,6.068,27.532Q31.9,28,57.11,35.916l-.721,2.88q-30.064-4.245-31.682-6.586C23.089,29.868,15.008,11.368,11.878,0Z" transform="translate(25.673 0)" fill="#d4a181" fill-rule="evenodd"/>
          <path id="Pant-2" data-name="Pant" d="M74.409,33.426l-1.27,4.639q-22.486,1.93-27.555-2.789T34.029,0H51.364q4.109,25.022,4.595,26.072T74.409,33.426Z" transform="translate(2.465 0)" fill="#ff4133" fill-rule="evenodd"/>
          <g id="Accessories_Shoe_Flat-Sneaker-2" data-name="Accessories/Shoe/Flat-Sneaker" transform="translate(86.037 34.964) rotate(100)">
            <path id="shoe-4" data-name="shoe" d="M.464,4.059A6.1,6.1,0,0,1,0,2.194,14.191,14.191,0,0,1,.237,0L15.6.057q.606,2.023-.683,2.179t-2.142.283L5.646,5.741a.272.272,0,0,1-.36-.142l0-.007L4.819,4.454a4.851,4.851,0,0,0-1.943-.576A4.3,4.3,0,0,0,1.2,4.372h0A.543.543,0,0,1,.479,4.1Q.471,4.077.464,4.059Z" transform="translate(0 0)" fill="#e4e4e4" fill-rule="evenodd"/>
          </g>
        </g>
        <g id="Body_Trench-Coat" data-name="Body/Trench-Coat" transform="translate(87.117 75.626) rotate(170)">
          <path id="Skin-2" data-name="Skin" d="M55.821,18.162,64.2,11.213a23.968,23.968,0,0,0,5.84-2.765c.355-.365.764-1.082-.8-.859s-3.229.389-3.485-.123.652-1.206.159-1.887q-.492-.682-3.894,3.84l-8.5,4.139Zm-39.843,5.3,4.821-1.19Q11.077,6.311,10.4,5.4c-1.013-1.365-.286-3.993-.039-5.37C8.315-.331,9.279,2.609,6.687,2.113,4.321,1.66,2.261.3.194,2.372-.06,2.626-.214,3.391.72,3.734c2.327.853,5.785,2.5,6.369,3.17Q8.283,8.284,15.978,23.464Z" transform="translate(1.637 16.517) rotate(4)" fill="#d4a181" fill-rule="evenodd"/>
          <path id="Back-Arm" d="M20.974,7.872a9.681,9.681,0,0,0,3.71-.531,1.211,1.211,0,0,0,.78-1.55,1.249,1.249,0,0,0-.775-.769q.381-.272.769-.54L23.2,0C13.808,4.564,4.974,8,.971,15.577-.373,18.12.117,26.777,0,29.926l2.977,1.206A68.511,68.511,0,0,1,20.974,7.872Z" transform="translate(37.144 29.97)" fill="#69a1ac" fill-rule="evenodd"/>
          <path id="Shirt-2" data-name="Shirt" d="M0,.663Q13.1-.7,20.636.739c.622.119.6,2.745.319,3.461-4.448,11.153-7.371,19.318-7.342,27.076q-1.238-.637-4.326-.205C3.721,23.055,1.143,13.873,0,.663Z" transform="translate(26.591 29.919)" fill="#191847" fill-rule="evenodd"/>
          <path id="Coat-Front-2" data-name="Coat-Front" d="M16.895,29.256a1.2,1.2,0,0,0-.371,1.105l.148.805a1.253,1.253,0,0,0,1.088,1.009q.142.613.245,1.218c.574,3.406-.372,6.74-.315,10.017q-6.726-5.63-12.1-19.4L.342,25.5q.3,1.095.631,2.163C.368,28-.334,29.544.176,29.8a6.258,6.258,0,0,0,1.673.572q7.3,21.337,23.733,31.257l.967,0,2.194.008C27.768,49.581,40.526,23.3,35.978.792,27.72-1.044,15.961,4.53,4.478,0c.461,9.058,9.047,19.728,12.417,29.256Z" transform="translate(8.067 0)" fill="#89c5cc" fill-rule="evenodd"/>
          <path id="Shade-Lapel" d="M2.6,20.682l-1.45-4.327,2.876-3.229-2.62-2.555L7.682,0,0,10.545l2.573,2.576L.02,15.974Z" transform="translate(32.195 40.684)" fill="rgba(0,0,0,0.1)" fill-rule="evenodd"/>
          <path id="Buttons" d="M1.108,12.523A1.091,1.091,0,0,0,0,13.609,1.111,1.111,0,0,0,1.116,14.7a1.091,1.091,0,0,0,1.108-1.085A1.111,1.111,0,0,0,1.108,12.523Zm1.366-6.26A1.091,1.091,0,0,0,1.366,7.349,1.111,1.111,0,0,0,2.482,8.443,1.091,1.091,0,0,0,3.59,7.357,1.111,1.111,0,0,0,2.474,6.264ZM2.729,0A1.091,1.091,0,0,0,1.621,1.085,1.111,1.111,0,0,0,2.737,2.179,1.091,1.091,0,0,0,3.845,1.094,1.111,1.111,0,0,0,2.729,0Z" transform="translate(36.902 24.068)" fill="rgba(0,0,0,0.4)" fill-rule="evenodd"/>
        </g>
      </g>
    </g>
  </g>
</svg>
