<svg xmlns="http://www.w3.org/2000/svg" width="44.02" height="43.002" viewBox="0 0 44.02 43.002">
  <g id="Groupe_97" data-name="Groupe 97" transform="translate(-83.017 -723)">
    <path id="Tracé_16" data-name="Tracé 16" d="M52,50.138l-1.664-6.384-.005-.02a7.724,7.724,0,0,0-5.9-5.37l-.011,0-9.438-1.8v-.816h7.1a.7.7,0,0,0,.71-.694V20.484a12.784,12.784,0,0,0-25.56,0V35.05a.7.7,0,0,0,.71.694h7.1v.816l-9.438,1.8-.011,0a7.724,7.724,0,0,0-5.9,5.37l-.005.02L8.023,50.138a.68.68,0,0,0,.127.6A.715.715,0,0,0,8.711,51h42.6a.715.715,0,0,0,.561-.268.68.68,0,0,0,.127-.6ZM35.511,41.264c-.454,1.311-2.542,2.118-4.149,2.523l3.058-5.478C35.424,39.466,35.79,40.458,35.511,41.264Zm-5.5,2.047-3.55-6.358V35.516a8.462,8.462,0,0,0,3.55.921,8.462,8.462,0,0,0,3.55-.921v1.437Zm-11.36-8.955V20.484a11.363,11.363,0,0,1,22.72,0V34.356H35.5c2.449-1.778,4.453-4.536,4.453-7.629V21.139a.7.7,0,0,0-.581-.682,7.3,7.3,0,0,1-4.593-3.112.713.713,0,0,0-.517-.3.72.72,0,0,0-.568.194A11.439,11.439,0,0,1,21.074,19.5a.725.725,0,0,0-.678.049.69.69,0,0,0-.325.583v6.591c0,3.093,2,5.851,4.453,7.629Zm5.888-1.77a7.82,7.82,0,0,1-3.048-5.859V21.162a12.992,12.992,0,0,0,4.26.709,12.861,12.861,0,0,0,8.337-3.106,8.724,8.724,0,0,0,4.443,2.926v5.035a7.82,7.82,0,0,1-3.048,5.859,9.24,9.24,0,0,1-5.472,2.464A9.24,9.24,0,0,1,24.538,32.586ZM25.6,38.309l3.058,5.478c-1.608-.4-3.7-1.212-4.15-2.523-.279-.806.088-1.8,1.092-2.955Zm17.19,11.305V46.84a.71.71,0,0,0-1.42,0v2.774H18.651V46.84a.71.71,0,0,0-1.42,0v2.774H9.624l1.436-5.509a6.319,6.319,0,0,1,4.821-4.383l8.036-1.535a3.866,3.866,0,0,0-.753,3.523c.446,1.284,1.743,2.305,3.859,3.037a16.3,16.3,0,0,0,2.893.7h0a.632.632,0,0,0,.091.006h0a.617.617,0,0,0,.091-.006h0a16.3,16.3,0,0,0,2.894-.7c2.115-.732,3.413-1.753,3.858-3.037a3.861,3.861,0,0,0-.753-3.523l8.037,1.535a6.319,6.319,0,0,1,4.821,4.383L50.4,49.615Z" transform="translate(75.016 715)" fill="#3d3d3d"/>
    <path id="Tracé_17" data-name="Tracé 17" d="M240.7,265.394h1.394a.7.7,0,0,0,0-1.394H240.7a.7.7,0,0,0,0,1.394Z" transform="translate(-136.367 481.191)" fill="#3d3d3d"/>
    <ellipse id="Ellipse_32" data-name="Ellipse 32" cx="1.5" cy="1" rx="1.5" ry="1" transform="translate(99 738)" fill="#3d3d3d"/>
    <ellipse id="Ellipse_33" data-name="Ellipse 33" cx="1.5" cy="1" rx="1.5" ry="1" transform="translate(107 738)" fill="#3d3d3d"/>
    <circle id="Ellipse_34" data-name="Ellipse 34" cx="1" cy="1" r="1" transform="translate(104 762)" fill="#3d3d3d"/>
  </g>
</svg>
