<svg xmlns="http://www.w3.org/2000/svg" width="42.077" height="43.009" viewBox="0 0 42.077 43.009">
  <g id="Groupe_100" data-name="Groupe 100" transform="translate(-79.988 -881)">
    <circle id="Ellipse_28" data-name="Ellipse 28" cx="1" cy="1" r="1" transform="translate(95 901)" fill="#3d3d3d"/>
    <circle id="Ellipse_29" data-name="Ellipse 29" cx="1" cy="1" r="1" transform="translate(105 901)" fill="#3d3d3d"/>
    <path id="Tracé_16" data-name="Tracé 16" d="M50.056,48.278l-1.591-6.1-.005-.019a7.383,7.383,0,0,0-5.64-5.133l-.01,0L33.79,35.3v-.78h6.787a.671.671,0,0,0,.679-.663V19.933a12.219,12.219,0,0,0-24.432,0V33.856a.671.671,0,0,0,.679.663h6.787v.78l-9.021,1.724-.01,0a7.383,7.383,0,0,0-5.64,5.133l-.005.019-1.591,6.1a.65.65,0,0,0,.122.57.684.684,0,0,0,.536.256H49.4a.684.684,0,0,0,.536-.256.65.65,0,0,0,.122-.57ZM34.3,39.8c-.433,1.253-2.43,2.025-3.966,2.412l2.923-5.236C34.213,38.077,34.563,39.025,34.3,39.8Zm-5.258,1.957-3.393-6.077V34.3a8.089,8.089,0,0,0,3.393.88,8.089,8.089,0,0,0,3.393-.88v1.373Zm-10.859-8.56V19.933a10.862,10.862,0,0,1,21.717,0V33.193H34.284c2.341-1.7,4.256-4.336,4.256-7.293V20.559a.668.668,0,0,0-.556-.652,6.975,6.975,0,0,1-4.39-2.975.681.681,0,0,0-.494-.288.688.688,0,0,0-.543.186A10.934,10.934,0,0,1,20.5,19a.693.693,0,0,0-.648.047.659.659,0,0,0-.311.557v6.3c0,2.957,1.916,5.593,4.256,7.293ZM23.808,31.5A7.475,7.475,0,0,1,20.9,25.9V20.581a12.418,12.418,0,0,0,4.072.678,12.293,12.293,0,0,0,7.969-2.968,8.339,8.339,0,0,0,4.247,2.8V25.9a7.475,7.475,0,0,1-2.913,5.6,8.833,8.833,0,0,1-5.231,2.355A8.833,8.833,0,0,1,23.808,31.5Zm1.015,5.471,2.923,5.236c-1.537-.387-3.533-1.159-3.967-2.412-.266-.771.084-1.719,1.043-2.824ZM41.255,47.778V45.126a.679.679,0,0,0-1.357,0v2.652H18.181V45.126a.679.679,0,0,0-1.357,0v2.652H9.552l1.373-5.266a6.04,6.04,0,0,1,4.608-4.19l7.682-1.468a3.7,3.7,0,0,0-.719,3.367c.426,1.227,1.666,2.2,3.689,2.9a15.582,15.582,0,0,0,2.766.67h0a.6.6,0,0,0,.087.006h0a.59.59,0,0,0,.087-.006h0a15.583,15.583,0,0,0,2.766-.67c2.022-.7,3.263-1.676,3.688-2.9a3.691,3.691,0,0,0-.719-3.367l7.682,1.468a6.04,6.04,0,0,1,4.608,4.19l1.373,5.266Z" transform="translate(71.988 874.905)" fill="#3d3d3d"/>
    <path id="Tracé_17" data-name="Tracé 17" d="M240.666,265.333H242A.666.666,0,0,0,242,264h-1.333a.666.666,0,0,0,0,1.333Z" transform="translate(-140.306 640.117)" fill="#3d3d3d"/>
    <ellipse id="Ellipse_32" data-name="Ellipse 32" cx="1.5" cy="1" rx="1.5" ry="1" transform="translate(95 897)" fill="#3d3d3d"/>
    <ellipse id="Ellipse_33" data-name="Ellipse 33" cx="1.5" cy="1" rx="1.5" ry="1" transform="translate(104 897)" fill="#3d3d3d"/>
    <circle id="Ellipse_34" data-name="Ellipse 34" cx="1" cy="1" r="1" transform="translate(100 920)" fill="#3d3d3d"/>
    <g id="Rectangle_305" data-name="Rectangle 305" transform="translate(92 881)" fill="#fff" stroke="#3d3d3d" stroke-width="1.5">
      <rect width="18" height="10" stroke="none"/>
      <rect x="0.75" y="0.75" width="16.5" height="8.5" fill="none"/>
    </g>
    <g id="Rectangle_306" data-name="Rectangle 306" transform="translate(95 900)" fill="#fff" stroke="#3d3d3d" stroke-width="1.5">
      <rect width="12" height="11" stroke="none"/>
      <rect x="0.75" y="0.75" width="10.5" height="9.5" fill="none"/>
    </g>
    <path id="Tracé_13" data-name="Tracé 13" d="M232.942,35.745h.942v.936a.942.942,0,0,0,1.884,0v-.936h.942a.936.936,0,1,0,0-1.872h-.942v-.936a.942.942,0,0,0-1.884,0v.936h-.942a.936.936,0,1,0,0,1.872Z" transform="translate(-133.855 850.852)" fill="#3d3d3d"/>
    <path id="Tracé_425" data-name="Tracé 425" d="M-1161,12038.925l4.11,2.133" transform="translate(1253.398 -11139.842)" fill="none" stroke="#3d3d3d" stroke-width="1"/>
    <path id="Tracé_426" data-name="Tracé 426" d="M-1156.89,12038.925l-4.11,2.133" transform="translate(1266.78 -11139.842)" fill="none" stroke="#3d3d3d" stroke-width="1"/>
  </g>
</svg>
