<svg xmlns="http://www.w3.org/2000/svg" width="43.986" height="42.997" viewBox="0 0 43.986 42.997">
  <g id="Groupe_98" data-name="Groupe 98" transform="translate(-243.999 -723.006)">
    <path id="Tracé_14" data-name="Tracé 14" d="M51.965,50.148,50.3,43.072c0-.012-.006-.023-.01-.036a7.72,7.72,0,0,0-5.9-5.369l-8.732-1.8V34.688a9.694,9.694,0,0,0,4.155-6.576h.457a2.458,2.458,0,0,0,2.483-2.427V23.6a2.458,2.458,0,0,0-2.483-2.427h-.355V17.709a9.935,9.935,0,0,0-19.865,0v3.468H19.7A2.458,2.458,0,0,0,17.22,23.6v2.081A2.458,2.458,0,0,0,19.7,28.112h.457a9.694,9.694,0,0,0,4.155,6.576v1.183l-8.732,1.8a7.719,7.719,0,0,0-5.9,5.369c0,.012-.007.023-.01.036L8.015,50.148a.682.682,0,0,0,.137.587A.716.716,0,0,0,8.707,51H51.274a.716.716,0,0,0,.555-.261A.682.682,0,0,0,51.965,50.148ZM39.923,22.564h.355a1.053,1.053,0,0,1,1.064,1.04v2.081a1.053,1.053,0,0,1-1.064,1.04h-.355ZM20.058,26.725H19.7a1.053,1.053,0,0,1-1.064-1.04V23.6a1.053,1.053,0,0,1,1.064-1.04h.355Zm1.419-9.016a8.516,8.516,0,0,1,17.027,0v7.569a1.043,1.043,0,0,1-.709-.98V18.4a.687.687,0,0,0-.26-.536.721.721,0,0,0-.589-.143L29.99,19.082l-6.955-1.359a.721.721,0,0,0-.589.143.687.687,0,0,0-.26.536V24.3a1.043,1.043,0,0,1-.709.98Zm0,9.016V26.7a2.449,2.449,0,0,0,2.128-2.4V19.249l6.246,1.221a.716.716,0,0,0,.278,0l6.246-1.221V24.3A2.449,2.449,0,0,0,38.5,26.7v.025a8.516,8.516,0,0,1-17.027,0ZM35.429,40.839l-3.617,1.2,2.853-3.984ZM25.3,38.024l2.88,4.022-3.7-1.207ZM29.281,49.61H17.22V47.53a.71.71,0,0,0-1.419,0v2.08H9.6L11.057,43.4a6.316,6.316,0,0,1,4.819-4.376l8.143-1.676-1.1,3.748a.691.691,0,0,0,.458.849l5.9,1.923ZM25.734,36.215V35.5a10.128,10.128,0,0,0,8.513,0v.72L29.99,42.159ZM39.923,49.61H35.666V47.53h4.257Zm4.257,0V47.53a.71.71,0,0,0-1.419,0v2.08H41.341V46.836a.7.7,0,0,0-.709-.694H34.956a.7.7,0,0,0-.709.694V49.61H30.7V43.866l5.814-1.921a.691.691,0,0,0,.458-.837l-1.031-3.764,8.164,1.68A6.316,6.316,0,0,1,48.924,43.4l1.459,6.209Z" transform="translate(236.002 715.006)" fill="#3d3d3d"/>
    <path id="Tracé_15" data-name="Tracé 15" d="M236.182,264.7a.7.7,0,0,0-.7-.7H232.7a.7.7,0,0,0,0,1.394h2.788A.7.7,0,0,0,236.182,264.7Z" transform="translate(31.901 481.193)" fill="#3d3d3d"/>
    <circle id="Ellipse_30" data-name="Ellipse 30" cx="1" cy="1" r="1" transform="translate(261 737)" fill="#3d3d3d"/>
    <circle id="Ellipse_31" data-name="Ellipse 31" cx="1" cy="1" r="1" transform="translate(269 737)" fill="#3d3d3d"/>
  </g>
</svg>
